<?xml version="1.0" encoding="UTF-8"?>
<svg width="97px" height="112px" viewBox="0 0 97 112" version="1.1" xmlns="http://www.w3.org/2000/svg" xmlns:xlink="http://www.w3.org/1999/xlink">
    <title>waves.nw.water.tile</title>
    <defs>
        <filter x="0.0%" y="0.0%" width="100.0%" height="100.0%" filterUnits="objectBoundingBox" id="filter-1">
            <feOffset dx="0" dy="0" in="SourceAlpha" result="shadowOffsetOuter1"></feOffset>
            <feColorMatrix values="0 0 0 0 0   0 0 0 0 0   0 0 0 0 0  0 0 0 0.5 0" type="matrix" in="shadowOffsetOuter1" result="shadowMatrixOuter1"></feColorMatrix>
            <feMerge>
                <feMergeNode in="shadowMatrixOuter1"></feMergeNode>
                <feMergeNode in="SourceGraphic"></feMergeNode>
            </feMerge>
        </filter>
    </defs>
    <g id="Page-1" stroke="none" stroke-width="1" fill="none" fill-rule="evenodd">
        <g id="waves.nw.water" filter="url(#filter-1)">
            <path d="M96.973,-2.91322522e-13 L96.9733753,111.952995 L96.954,111.963 L5.68434189e-14,55.987 L96.973,-2.91322522e-13 Z" id="Combined-Shape" fill="#2679F6"></path>
            <g id="Group-6" transform="translate(21.000000, 28.000000)" stroke="#FFFFFF" stroke-width="3">
                <path d="M0,30 C6.38609035,30 10.0290111,28 10.9287623,24 C13.8234395,28 17.5138521,30 22,30" id="Path"></path>
                <path d="M49,6 C55.3860904,6 59.0290111,4 59.9287623,0 C62.8234395,4 66.5138521,6 71,6" id="Path"></path>
                <path d="M32,50 C38.3860904,50 42.0290111,48 42.9287623,44 C45.8234395,48 49.5138521,50 54,50" id="Path"></path>
            </g>
        </g>
    </g>
</svg>